<?xml version="1.0" standalone="no"?>
<!DOCTYPE svg PUBLIC "-//W3C//DTD SVG 20010904//EN"
 "http://www.w3.org/TR/2001/REC-SVG-20010904/DTD/svg10.dtd">
<svg version="1.0" xmlns="http://www.w3.org/2000/svg"
 width="1322.000000pt" height="1658.000000pt" viewBox="0 0 1322.000000 1658.000000"
 preserveAspectRatio="xMidYMid meet">

<g transform="translate(0.000000,1658.000000) scale(0.100000,-0.100000)"
fill="#000000" stroke="none">
<path d="M4253 9838 c3 -2722 -2 -2507 63 -2828 271 -1345 1341 -2407 2694
-2674 459 -90 1011 -81 1422 25 l38 10 0 458 0 458 -100 -28 c-256 -72 -437
-97 -705 -97 -214 0 -337 12 -530 53 -747 155 -1408 670 -1744 1360 -142 290
-221 573 -251 890 -6 70 -10 806 -10 2033 l0 1922 1643 1 c903 1 1654 0 1669
-1 26 -1 35 15 248 439 121 243 220 443 220 446 0 3 -1049 5 -2330 5 l-2330 0
3 -2472z"/>
<path d="M6070 9955 l0 -505 -142 -69 c-156 -77 -472 -251 -465 -257 2 -2 31
7 65 21 133 54 399 115 503 115 l38 0 3 -957 c3 -952 3 -959 26 -1066 103
-486 394 -855 778 -987 145 -50 401 -75 610 -59 145 11 147 13 198 121 24 51
103 214 175 361 72 148 131 273 131 278 0 6 -12 8 -29 4 -41 -9 -312 -9 -391
0 -270 29 -494 163 -577 343 -51 109 -54 158 -60 990 -3 424 -3 772 1 772 16
0 136 -74 313 -192 l191 -128 135 -28 135 -28 27 56 c81 165 210 352 349 504
203 223 530 443 811 545 l80 29 -127 61 c-71 34 -185 88 -254 121 l-126 60
-85 -20 c-268 -64 -436 -154 -788 -423 -93 -72 -175 -134 -182 -139 -7 -6 -52
7 -125 36 -94 37 -210 70 -325 92 l-23 4 -1 413 c-1 226 -1 418 0 425 2 9 -91
12 -434 12 l-435 0 0 -505z"/>
</g>
</svg>
